<?xml version="1.0" encoding="utf-8"?>
<!-- Generator: Adobe Illustrator 23.0.1, SVG Export Plug-In . SVG Version: 6.00 Build 0)  -->
<svg version="1.1" id="Layer_1" xmlns="http://www.w3.org/2000/svg" xmlns:xlink="http://www.w3.org/1999/xlink" x="0px" y="0px"
	 viewBox="0 0 626 626" style="enable-background:new 0 0 626 626;" xml:space="preserve">
<style type="text/css">
	.st0{fill:#333333;}
	.st1{fill:#FFFFFF;}
	.st2{font-family:'Impact';}
	.st3{font-size:249px;}
	.st4{fill:#7AC943;}
</style>
<g>
	<path class="st0" d="M313,612.5c-80,0-155.21-31.15-211.78-87.72C44.65,468.21,13.5,393,13.5,313c0-80,31.15-155.21,87.72-211.78
		C157.79,44.65,233,13.5,313,13.5c80,0,155.21,31.15,211.78,87.72C581.35,157.79,612.5,233,612.5,313
		c0,80-31.15,155.21-87.72,211.78S393,612.5,313,612.5z"/>
	<path class="st1" d="M313,27c38.62,0,76.07,7.56,111.32,22.46c34.05,14.4,64.64,35.03,90.92,61.3
		c26.27,26.27,46.9,56.86,61.3,90.92C591.44,236.93,599,274.38,599,313s-7.56,76.07-22.46,111.32
		c-14.4,34.05-35.03,64.64-61.3,90.92c-26.27,26.27-56.86,46.9-90.92,61.3C389.07,591.44,351.62,599,313,599
		s-76.07-7.56-111.32-22.46c-34.05-14.4-64.64-35.03-90.92-61.3c-26.27-26.27-46.9-56.86-61.3-90.92C34.56,389.07,27,351.62,27,313
		s7.56-76.07,22.46-111.32c14.4-34.05,35.03-64.64,61.3-90.92s56.86-46.9,90.92-61.3C236.93,34.56,274.38,27,313,27 M313,0
		C140.13,0,0,140.13,0,313s140.13,313,313,313s313-140.13,313-313S485.87,0,313,0L313,0z"/>
</g>
<text transform="matrix(1 0 0 1 93.1362 408.4092)" class="st2 st3">DMD</text>
<text transform="matrix(1 0 0 1 88.1362 403.4092)" class="st4 st2 st3">DMD</text>
</svg>
